<svg preserveAspectRatio="none" width="100%" height="100%" overflow="visible" style="display: block;" viewBox="0 0 118.928 110.451" fill="none" xmlns="http://www.w3.org/2000/svg">
<g id="Group">
<g id="Rectangle 31">
<path d="M86.5131 6.37863L44.4728 12.6129L43.9821 39.9809L85.5278 33.82L86.5131 6.37863Z" fill="var(--fill-0, white)"/>
<path d="M90.7671 35.0649L37.0578 41.0078L33.8177 56.6523L37.9964 71.1966L92.439 70.1997L90.7671 35.0649Z" fill="var(--fill-0, white)"/>
</g>
<path id="Vector" d="M114.115 77.0571H104.326H100.921H91.5829H87.4773L83.6603 82.5055H65.8763V72.7699L96.9105 72.2719C91.3897 57.3947 91.3897 40.493 96.8569 31.5787L87.9312 32.5329C87.4889 31.5181 87.1401 30.3871 86.9027 29.1695C86.5766 27.5101 86.4256 25.6829 86.4256 23.8186C86.4256 20.0436 87.026 16.089 87.7591 12.8424C88.1361 11.2204 88.5365 9.77026 88.9184 8.6135C89.1021 8.03419 89.2861 7.53107 89.4489 7.11691C89.6048 6.70716 89.7562 6.38615 89.8517 6.20451L91.7506 2.55281L65.8763 6.95222V3.54438e-05H60.7745V7.8249L44.3868 10.6083L43.9097 11.465C41.2192 16.3062 40.4162 21.5242 40.409 26.1048C40.4162 30.8435 41.2749 34.9373 41.936 37.4162L35.8823 38.0633C27.6154 55.2677 37.2509 73.2266 37.2509 73.2266L60.7745 72.8496V82.506H44.85L40.1091 77.0576H29.6518H26.2488H14.1579L6.03733 63.7818L0.000103654 66.0484C0.000103654 66.0484 4.34539 75.9236 18.8709 96.3516C24.7012 104.551 33.3966 109.059 41.1144 109.967C44.047 110.312 49.2768 110.451 55.3421 110.451C69.5162 110.451 88.2522 109.697 92.8628 109.059C98.9328 108.224 107.842 107.7 113.971 95.4438C116.2 90.9822 117.893 84.2163 118.928 77.0571H114.115ZM47.0564 14.2997L60.7745 11.963L65.8763 11.0971L84.866 7.86439C84.3959 9.38862 83.9139 11.2206 83.4905 13.271C82.8363 16.469 82.3476 20.1465 82.3407 23.8191C82.3407 25.8952 82.5037 27.9714 82.8921 29.966C83.0946 30.9945 83.3692 32.0026 83.716 32.9754L65.8763 34.8748L60.7745 35.4146L46.0532 36.9788C45.4481 34.8632 44.4962 30.7646 44.4962 26.1048C44.4962 22.2782 45.1552 18.1122 47.0564 14.2997ZM39.8508 69.0926C37.9375 64.44 34.316 53.0961 38.6731 41.8755L60.7747 39.5246L65.8765 38.9799L90.4032 36.3732C87.8499 45.2315 88.1479 56.9922 91.3225 68.2731L65.8765 68.6759L60.7747 68.7575L39.8508 69.0926Z" fill="var(--fill-0, #4D2900)"/>
</g>
</svg>
