<svg preserveAspectRatio="none" width="100%" height="100%" overflow="visible" style="display: block;" viewBox="0 0 35 35" fill="none" xmlns="http://www.w3.org/2000/svg">
<g id="vaadin:diploma-scroll" clip-path="url(#clip0_196_10)">
<path id="Vector" d="M27.5844 18.3969C26.4865 18.2359 25.4161 17.9237 24.4037 17.4694C27.5264 14.7236 30.7778 12.1277 34.1469 9.69063L34.3656 9.5375L34.4969 9.29688C35.1044 8.01684 35.2696 6.57133 34.9667 5.18721C34.6639 3.8031 33.91 2.55872 32.8234 1.64937C31.8174 0.718637 30.5386 0.136189 29.176 -0.0119224C27.8135 -0.160034 26.4394 0.134047 25.2569 0.826875L24.9812 1.11781C21.7073 5.66388 18.1198 9.97573 14.245 14.0219C10.117 17.6981 5.71627 21.056 1.08062 24.0669L0.21875 24.6094V25.1125C-0.106728 26.4776 -0.13853 27.8963 0.125447 29.2747C0.389425 30.653 0.943161 31.9595 1.75 33.1078C2.37005 33.7535 3.12277 34.2571 3.95624 34.5837C4.78972 34.9104 5.68414 35.0524 6.57781 35C7.34205 35.04 8.10341 34.8789 8.78589 34.5326C9.46837 34.1864 10.0481 33.6672 10.4672 33.0269C11.0031 32.3531 14.9844 27.3219 19.2281 22.7281C19.8144 23.7431 20.2694 24.9222 20.5275 26.1734C20.8026 28.4555 20.5026 30.7701 19.6547 32.9066L23.3406 28.4375L26.25 30.625C26.1684 28.1446 25.7383 25.6881 24.9725 23.3275C24.4364 22.3507 23.7623 21.4563 22.9709 20.6719C23.8591 21.4287 24.8762 22.0784 25.9722 22.5838C28.0284 23.3231 30.3231 23.835 32.7009 24.0538L30.625 21.2844L35 17.5C33.037 18.1304 30.9871 18.4486 28.9253 18.4428C28.4528 18.4428 27.9847 18.4268 27.5209 18.3947L27.5844 18.3969ZM26.6 2.58125C27.1732 2.30021 27.8035 2.155 28.4419 2.15688C29.5487 2.15688 30.555 2.58562 31.3053 3.28562C32.0013 3.84462 32.5023 4.60985 32.7361 5.47139C32.97 6.33293 32.9247 7.24642 32.6069 8.08063C31.5437 8.75219 27.475 11.8366 23.5375 15.3147C23.4256 14.2179 22.9037 13.2039 22.0762 12.4753C21.7058 12.1582 21.2731 11.922 20.806 11.7818C20.3389 11.6417 19.8476 11.6007 19.3637 11.6616C21.9131 8.74681 24.3277 5.71686 26.6 2.58125ZM5.90625 25.8344C6.07458 25.7176 6.27453 25.6551 6.47937 25.655L6.56687 25.6594H6.71562C7.10719 25.7731 7.44625 25.97 7.72406 26.2303L5.81875 27.8031C5.58504 27.3163 5.49475 26.7731 5.55844 26.2369C5.61886 26.0645 5.74236 25.9215 5.90406 25.8366L5.90625 25.8344ZM8.75 31.7187C8.53475 32.0997 8.21021 32.4073 7.81831 32.6019C7.4264 32.7965 6.98515 32.8691 6.55156 32.8103C5.95647 32.8655 5.35654 32.7882 4.79488 32.584C4.23322 32.3797 3.72377 32.0536 3.30312 31.6291C2.46803 30.3862 2.02388 28.922 2.02781 27.4247C2.02927 26.8749 2.08542 26.3426 2.19625 25.8278L3.74062 24.8281C3.535 25.1344 3.38187 25.4931 3.30531 25.8803C3.18591 27.4006 3.59971 28.9151 4.47562 30.1634L5.25 31.1259L8.96875 28.0634C9.34043 29.2796 9.25804 30.5894 8.73687 31.7494L8.75 31.7187ZM10.6313 26.3594C9.88466 25.0516 8.68699 24.0608 7.2625 23.5725C7.10719 23.5462 6.97812 23.5375 6.84687 23.5375C6.71562 23.5375 6.58656 23.5462 6.45969 23.5594C6.20525 23.5314 5.9485 23.5314 5.69406 23.5594C8.72398 21.4981 11.6364 19.2692 14.4178 16.8831C15.2884 17.0384 16.1941 17.43 16.8919 18.0491C17.5416 18.7337 17.9419 19.6656 17.9419 20.6937L17.9375 20.8994C15.6417 23.3612 13.4522 25.92 11.375 28.5688C11.2629 27.7791 10.9976 27.0189 10.5941 26.3309L10.6313 26.3594Z" fill="var(--fill-0, white)"/>
</g>
<defs>
<clipPath id="clip0_196_10">
<rect width="35" height="35" fill="white"/>
</clipPath>
</defs>
</svg>
