<svg preserveAspectRatio="none" width="100%" height="100%" overflow="visible" style="display: block;" viewBox="0 0 31 18" fill="none" xmlns="http://www.w3.org/2000/svg">
<path id="Vector" d="M31 12.548C31.0001 11.3274 30.6034 10.1421 29.8734 9.18194C29.1435 8.22173 28.1226 7.54214 26.9741 7.252C26.9266 5.31259 26.1472 3.46904 24.802 2.11434C23.4568 0.759637 21.6522 0.000946994 19.7729 1.91542e-06C18.6834 -0.000806163 17.608 0.25408 16.6279 0.745393C15.6479 1.23671 14.7888 1.95159 14.1157 2.836C13.568 2.10975 12.8033 1.59045 11.9404 1.35868C11.0776 1.12691 10.1647 1.19563 9.34351 1.55419C8.52233 1.91275 7.83875 2.54108 7.39886 3.34169C6.95896 4.1423 6.78734 5.07041 6.91063 5.982C6.06547 5.82417 5.19704 5.85985 4.3667 6.08651C3.53636 6.31317 2.76436 6.72529 2.10523 7.29375C1.44611 7.8622 0.915931 8.57313 0.55216 9.37632C0.18839 10.1795 -0.000101669 11.0554 4.11404e-08 11.942C0.000512661 13.5478 0.618413 15.0878 1.71799 16.2237C2.81756 17.3595 4.3089 17.9984 5.86445 18H25.7303C27.1288 17.9968 28.469 17.4209 29.4566 16.3988C30.4442 15.3766 31.0005 13.9917 31 12.548Z" fill="var(--fill-0, white)"/>
</svg>
