<svg preserveAspectRatio="none" width="100%" height="100%" overflow="visible" style="display: block;" viewBox="0 0 18 24" fill="none" xmlns="http://www.w3.org/2000/svg">
<g id="fontisto:music-note" clip-path="url(#clip0_196_3)">
<path id="Vector" d="M18.07 0.169C17.9488 0.0819338 17.8081 0.0259977 17.6602 0.0061181C17.5124 -0.0137615 17.3619 0.00302525 17.222 0.055L17.228 0.053L6.151 3.991C5.97143 4.05456 5.81602 4.1723 5.70622 4.32796C5.59642 4.48361 5.53764 4.66951 5.538 4.86V17.7C4.97184 17.3908 4.33707 17.2289 3.692 17.229C2.7558 17.1912 1.84157 17.5248 1.1501 18.1571C0.458634 18.7893 0.0449149 19.6692 -0.001 20.605V20.613C0.0431156 21.5515 0.456965 22.4344 1.15009 23.0687C1.84322 23.703 2.75926 24.0371 3.698 23.998H3.691C4.6272 24.0358 5.54043 23.7022 6.2319 23.0699C6.92337 22.4377 7.33708 21.5578 7.383 20.622V7.731L16.613 4.508V13.481C16.0466 13.1726 15.4119 13.011 14.767 13.011H14.766C13.8298 12.9727 12.9163 13.3061 12.2249 13.9385C11.5335 14.5709 11.1201 15.4511 11.075 16.387V16.395C11.1189 17.3336 11.5326 18.2166 12.2258 18.851C12.919 19.4853 13.8352 19.8194 14.774 19.78H14.767L14.872 19.782C15.6792 19.7824 16.4634 19.5129 17.0999 19.0164C17.7364 18.52 18.1888 17.825 18.385 17.042L18.39 17.017C18.4348 16.9092 18.4583 16.7937 18.459 16.677V0.923C18.4592 0.775752 18.4241 0.630601 18.3566 0.499744C18.2891 0.368887 18.1911 0.256148 18.071 0.171L18.068 0.169H18.07Z" fill="var(--fill-0, white)"/>
</g>
<defs>
<clipPath id="clip0_196_3">
<rect width="18" height="24" fill="white"/>
</clipPath>
</defs>
</svg>
