<svg preserveAspectRatio="none" width="100%" height="100%" overflow="visible" style="display: block;" viewBox="0 0 23 14" fill="none" xmlns="http://www.w3.org/2000/svg">
<path id="Vector" d="M23 9.75956C23 8.81022 22.7057 7.88834 22.1642 7.14151C21.6226 6.39468 20.8651 5.86611 20.0131 5.64045C19.9778 4.13202 19.3995 2.69814 18.4015 1.64449C17.4034 0.590829 16.0645 0.000736551 14.6702 1.48977e-06C13.8619 -0.000627015 13.064 0.197618 12.3368 0.57975C11.6097 0.961882 10.9724 1.5179 10.473 2.20578C10.0666 1.64092 9.49924 1.23701 8.85904 1.05675C8.21883 0.876484 7.54155 0.929937 6.93228 1.20881C6.32302 1.48769 5.81585 1.9764 5.48947 2.59909C5.1631 3.22179 5.03577 3.94365 5.12724 4.65267C4.50019 4.52991 3.85587 4.55766 3.23981 4.73395C2.62375 4.91025 2.05098 5.23078 1.56195 5.67291C1.07292 6.11505 0.679561 6.66799 0.409667 7.2927C0.139773 7.9174 -7.54321e-05 8.59861 3.05235e-08 9.28822C0.000380361 10.5372 0.458823 11.7349 1.27464 12.6184C2.09045 13.5018 3.19693 13.9988 4.35104 14H19.0902C20.1278 13.9975 21.1221 13.5496 21.8549 12.7546C22.5876 11.9596 23.0004 10.8824 23 9.75956Z" fill="var(--fill-0, white)"/>
</svg>
