<svg preserveAspectRatio="none" width="100%" height="100%" overflow="visible" style="display: block;" viewBox="0 0 20 24" fill="none" xmlns="http://www.w3.org/2000/svg">
<path id="Vector" d="M19.3913 3.11995C17.9644 0.64499 11.5135 0.119998 10.7852 0.0524992L9.96765 0V15.2173C9.77846 15.0635 9.57713 14.9255 9.36567 14.8048C8.61919 14.4256 7.80438 14.2029 6.97033 14.1501C6.13627 14.0972 5.30025 14.2153 4.51264 14.4973C1.45071 15.4948 -0.518745 18.3447 0.120397 20.8497C0.262844 21.3795 0.511884 21.8739 0.851999 22.3023C1.19211 22.7307 1.61601 23.0838 2.09728 23.3397C2.92257 23.7833 3.84519 24.0102 4.78019 23.9996C5.53272 23.9995 6.28039 23.878 6.9949 23.6397C9.74469 22.7472 11.6027 20.3622 11.4986 18.0747V4.86743C12.2418 4.95743 13.26 5.11492 14.3376 5.34742C15.4042 5.51162 16.429 5.88351 17.3549 6.4424C18.0981 6.9374 17.6374 7.86738 17.6002 7.94238C17.245 8.48669 16.8312 8.98974 16.3665 9.44236C16.2313 9.57762 16.1528 9.76007 16.147 9.95208C16.1412 10.1441 16.2086 10.331 16.3354 10.4743C16.4621 10.6177 16.6386 10.7064 16.8283 10.7223C17.018 10.7382 17.2065 10.6801 17.3549 10.5598C17.511 10.3873 21.4871 6.7499 19.3913 3.11995Z" fill="var(--fill-0, white)"/>
</svg>
