<svg preserveAspectRatio="none" width="100%" height="100%" overflow="visible" style="display: block;" viewBox="0 0 11.0654 10.6226" fill="none" xmlns="http://www.w3.org/2000/svg">
<path id="Star 7" d="M4.58163 0.690982C4.88098 -0.230329 6.18439 -0.230327 6.48374 0.690984L7.10428 2.60082C7.23816 3.01284 7.62211 3.2918 8.05534 3.2918H10.0635C11.0322 3.2918 11.435 4.53141 10.6512 5.10081L9.02664 6.28115C8.67615 6.5358 8.5295 6.98717 8.66337 7.39919L9.28391 9.30902C9.58326 10.2303 8.52878 10.9965 7.74507 10.4271L6.12047 9.24671C5.76998 8.99207 5.29539 8.99207 4.9449 9.24671L3.3203 10.4271C2.53659 10.9965 1.48211 10.2303 1.78146 9.30902L2.402 7.39919C2.53588 6.98717 2.38922 6.5358 2.03873 6.28115L0.414131 5.10081C-0.369582 4.53141 0.0331945 3.2918 1.00192 3.2918H3.01003C3.44326 3.2918 3.82721 3.01284 3.96109 2.60081L4.58163 0.690982Z" fill="var(--fill-0, #FFFE8B)"/>
</svg>
