<svg width="96" height="96" viewBox="0 0 96 96" fill="none" xmlns="http://www.w3.org/2000/svg">
<path d="M3.88538 66.9751H11.7874H14.5359H22.0734H25.3875L28.4687 71.7106H42.8241V63.2488L17.7729 62.8159C22.2294 49.8852 22.2294 35.1949 17.8162 27.447L25.0211 28.2763C25.3781 27.3943 25.6598 26.4113 25.8514 25.353C26.1146 23.9107 26.2365 22.3226 26.2365 20.7022C26.2365 17.4211 25.7518 13.9839 25.1601 11.1621C24.8558 9.75231 24.5325 8.49191 24.2243 7.48649C24.0759 6.98298 23.9274 6.54568 23.796 6.18571C23.6702 5.82958 23.5479 5.55057 23.4709 5.39269L21.9381 2.21877L42.8241 6.04257V0L46.9423 0V6.80107L60.1706 9.22033L60.5558 9.9649C62.7276 14.1727 63.3758 18.708 63.3816 22.6892C63.3758 26.808 62.6826 30.3661 62.1489 32.5207L67.0356 33.0831C73.7087 48.0365 65.9308 63.6457 65.9308 63.6457L46.9423 63.318V71.711H59.7967L63.6236 66.9755H72.0649H74.8118H84.5717L91.1267 55.4366L96 57.4067C96 57.4067 92.4924 65.9898 80.7673 83.7451C76.0611 90.8718 69.042 94.7903 62.8121 95.5793C60.4449 95.8787 56.2234 96 51.3274 96C39.8859 96 24.762 95.3447 21.0403 94.7903C16.1406 94.0641 8.94862 93.6088 4.00181 82.9561C2.202 79.0782 0.83606 73.1975 0 66.9751H3.88538ZM58.0157 12.4288L46.9423 10.3977L42.8241 9.6451L27.4954 6.8354C27.8749 8.1602 28.2639 9.75251 28.6058 11.5346C29.1338 14.3142 29.5283 17.5105 29.5339 20.7026C29.5339 22.5071 29.4023 24.3116 29.0888 26.0452C28.9253 26.9392 28.7036 27.8154 28.4237 28.6609L42.8241 30.3118L46.9423 30.781L58.8255 32.1405C59.3139 30.3017 60.0823 26.7393 60.0823 22.6892C60.0823 19.3633 59.5504 15.7424 58.0157 12.4288ZM63.8321 60.0526C65.3766 56.0088 68.2999 46.1491 64.7827 36.3966L46.9421 34.3532L42.8239 33.8798L23.0257 31.6142C25.0867 39.3135 24.8462 49.5354 22.2836 59.3404L42.8239 59.6905L46.9421 59.7613L63.8321 60.0526Z" fill="white"/>
</svg>
