<svg width="206" height="123" viewBox="0 0 206 123" fill="none" xmlns="http://www.w3.org/2000/svg">
<path d="M52.6321 87.1048L61.9918 86.4378L65.2474 86.2058L74.1753 85.5696L78.1007 85.2899L82.15 90.6389L99.1535 89.4273L98.4392 79.4045L68.7304 81.0063C72.9176 65.3141 71.6777 47.9139 65.7964 39.1092L74.4004 39.4834C74.7488 38.4085 74.9994 37.2204 75.137 35.9507C75.3271 34.2201 75.3374 32.3288 75.2006 30.4095C74.9237 26.5232 74.0595 22.4928 73.1204 19.2004C72.641 17.5563 72.1517 16.0906 71.7017 14.9258C71.4836 14.3419 71.2707 13.8365 71.0847 13.4212C70.9056 13.01 70.7373 12.6898 70.6326 12.5093L68.5492 8.87929L93.6107 11.6456L93.1007 4.48834L97.9787 4.14073L98.5527 12.1964L114.425 13.9454L114.944 14.7948C117.872 19.5955 119.023 24.9126 119.366 29.6278C119.706 34.5069 119.186 38.7799 118.735 41.3769L124.571 41.6307C133.737 58.7793 125.842 77.9243 125.842 77.9243L103.323 79.1389L104.031 89.0802L119.257 87.9952L123.39 82.0631L133.389 81.3506L136.642 81.1187L148.203 80.2949L154.993 66.0743L160.931 67.9964C160.931 67.9964 157.501 78.4589 145.112 100.479C140.139 109.318 132.156 114.551 124.843 116.012C122.065 116.566 117.075 117.066 111.276 117.48C97.7235 118.445 79.7544 118.946 75.2994 118.603C69.4345 118.156 60.8774 118.224 54.1189 106.024C51.6598 101.583 49.5455 94.7325 48.03 87.4328L52.6321 87.1048ZM112.144 17.9276L98.8563 16.4565L93.9148 15.9127L75.5213 13.8785C76.0826 15.4156 76.6779 17.2688 77.2331 19.3508C78.0932 22.5986 78.8302 26.3513 79.1063 30.1317C79.2586 32.2691 79.255 34.4176 79.03 36.4974C78.9118 37.5701 78.7233 38.6267 78.4631 39.6518L95.6592 40.3917L100.577 40.5998L114.767 41.2072C115.19 38.9879 115.8 34.7036 115.458 29.9063C115.177 25.9669 114.241 21.7229 112.144 17.9276ZM123.053 73.8456C124.541 68.9254 127.171 57.0002 122.182 45.7455L100.878 44.8311L95.9601 44.6179L72.3186 43.6054C75.4097 52.551 75.9875 64.6788 73.7799 76.5089L98.1387 75.1898L103.023 74.9261L123.053 73.8456Z" fill="white"/>
<path d="M99.257 106.639C58.3928 83.4192 17.0589 96.9643 1.5 106.639V122.31H204.5V106.639C195.83 111.286 180.64 116.824 162.667 118.755C143.213 120.845 120.497 118.709 99.257 106.639Z" fill="#55B8F6"/>
<path d="M1.5 105.896C17.0589 96.4895 58.3928 83.3207 99.2571 105.896C120.497 117.63 143.213 119.707 162.667 117.675C180.64 115.798 195.83 110.413 204.5 105.896" stroke="white" stroke-width="3" stroke-linecap="round"/>
</svg>
